<svg xmlns="http://www.w3.org/2000/svg" version="1.1" viewBox="1.724198818206787 1.279803991317749 463.7380676269531 511.2424621582031" width="467.00" height="514.00">
<g stroke-width="2.00" fill="none" stroke-linecap="butt">
<path stroke="#299ed8" d="&#10;  M 428.57 97.43&#10;  C 395.15 87.84 362.16 74.89 329.84 59.44"/>
<path stroke="#3763c4" d="&#10;  M 329.84 59.44&#10;  L 341.91 38.19"/>
<path stroke="#3250c4" d="&#10;  M 329.84 59.44&#10;  C 325.12 67.51 320.06 75.39 315.81 83.95&#10;  C 312.11 91.41 306.52 99.92 303.54 105.66&#10;  Q 298.77 114.83 293.85 124.42"/>
<path stroke="#4a1ab5" d="&#10;  M 236.80 157.65&#10;  Q 236.48 157.25 236.64 156.17&#10;  Q 236.65 156.11 237.18 154.84&#10;  Q 237.41 154.29 237.23 153.73&#10;  C 235.41 147.93 239.23 142.62 235.37 138.33&#10;  A 0.80 0.80 0.0 0 1 236.02 137.00&#10;  C 240.62 137.32 240.06 132.68 237.95 130.51&#10;  A 0.88 0.87 -25.3 0 0 237.22 130.25&#10;  Q 236.25 130.36 235.57 129.70&#10;  Q 235.20 129.33 235.41 128.85&#10;  C 236.94 125.36 236.43 122.42 237.35 119.47&#10;  A 1.01 0.99 33.6 0 0 237.15 118.53&#10;  Q 235.38 116.48 236.54 114.05&#10;  A 0.97 0.94 -50.4 0 0 236.46 113.09&#10;  Q 235.09 111.14 236.21 109.15&#10;  A 0.65 0.64 -40.1 0 0 236.26 108.61&#10;  L 235.12 105.37&#10;  A 0.69 0.69 0.0 0 1 235.18 104.76&#10;  Q 236.63 102.40 235.58 99.97&#10;  Q 235.40 99.57 235.48 99.13&#10;  C 236.22 94.75 233.65 91.44 235.07 87.56&#10;  A 1.07 1.06 -53.9 0 0 234.92 86.55&#10;  Q 233.73 84.97 234.55 83.09&#10;  A 0.96 0.95 -54.4 0 0 234.39 82.08&#10;  Q 232.74 80.15 233.49 77.78&#10;  A 1.88 1.87 -42.7 0 0 233.53 76.81&#10;  Q 232.72 73.17 233.93 69.65&#10;  A 0.98 0.97 -55.5 0 0 233.76 68.71&#10;  Q 232.74 67.46 233.28 65.97&#10;  Q 233.44 65.53 233.35 65.08&#10;  Q 232.93 62.96 233.71 61.02&#10;  A 1.17 1.17 0.0 0 0 233.60 59.92&#10;  Q 230.75 55.68 233.47 51.22&#10;  A 1.25 1.24 51.9 0 0 233.59 50.18&#10;  Q 232.82 47.78 233.96 45.60&#10;  A 0.91 0.91 0.0 0 0 233.94 44.71&#10;  Q 230.68 39.15 232.66 33.00&#10;  Q 232.83 32.49 232.64 31.99&#10;  L 230.16 25.46&#10;  A 0.96 0.95 -39.8 0 0 228.45 25.31&#10;  L 226.57 28.40&#10;  A 0.18 0.16 20.3 0 1 226.38 28.48&#10;  L 225.94 28.36&#10;  Q 225.65 28.29 225.90 28.13&#10;  Q 226.64 27.67 225.87 26.45"/>
<path stroke="#8621cf" d="&#10;  M 224.46 1.76&#10;  Q 227.98 4.01 230.27 7.05&#10;  C 233.91 11.89 228.38 21.74 225.87 26.45"/>
<path stroke="#8f26d4" d="&#10;  M 225.87 26.45&#10;  L 208.52 58.04"/>
<path stroke="#3f42ca" d="&#10;  M 209.59 208.57&#10;  L 197.75 208.09"/>
<path stroke="#4136c8" d="&#10;  M 197.75 208.09&#10;  L 129.49 207.72"/>
<path stroke="#6522c8" d="&#10;  M 129.49 207.72&#10;  L 135.22 196.15"/>
<path stroke="#7122cb" d="&#10;  M 135.22 196.15&#10;  L 150.00 165.60"/>
<path stroke="#ba2be8" d="&#10;  M 183.29 1.80&#10;  Q 180.38 2.63 177.06 2.19&#10;  Q 176.83 2.16 177.00 2.31&#10;  L 177.22 2.50&#10;  Q 177.44 2.69 177.16 2.69&#10;  Q 176.71 2.70 176.25 2.77&#10;  A 0.11 0.11 0.0 0 0 176.27 2.99&#10;  Q 176.99 2.96 177.60 3.24&#10;  Q 177.91 3.38 177.58 3.48&#10;  Q 177.44 3.52 177.32 3.57&#10;  Q 177.08 3.66 177.09 3.92&#10;  Q 177.27 8.44 181.35 9.56&#10;  Q 181.97 9.73 182.36 10.25&#10;  L 185.88 14.96&#10;  A 0.36 0.35 78.0 0 1 185.52 15.52&#10;  L 184.07 15.19&#10;  Q 183.16 14.98 183.66 15.77&#10;  L 186.35 19.99&#10;  Q 186.63 20.43 186.67 20.95&#10;  C 186.82 23.02 188.62 24.05 189.48 25.28&#10;  Q 191.62 28.36 193.63 31.53&#10;  Q 193.93 32.00 194.49 32.00&#10;  L 195.56 32.00&#10;  Q 196.10 32.00 196.36 32.46&#10;  C 199.12 37.36 201.76 41.55 203.45 47.14&#10;  Q 205.08 52.52 207.18 57.73&#10;  Q 207.36 58.19 207.86 58.13&#10;  L 208.52 58.04"/>
<path stroke="#7e24cf" d="&#10;  M 208.52 58.04&#10;  L 150.00 165.60"/>
<path stroke="#9c28e0" d="&#10;  M 150.00 165.60&#10;  Q 142.20 158.81 138.82 147.72&#10;  C 137.74 144.18 134.82 141.18 133.08 137.68&#10;  Q 128.46 128.32 120.80 120.57&#10;  Q 120.46 120.23 120.35 119.76&#10;  C 119.59 116.64 116.30 115.12 113.54 114.20&#10;  Q 113.05 114.04 113.32 113.60&#10;  C 114.94 111.04 112.96 108.37 110.19 108.00&#10;  Q 109.69 107.94 109.34 107.58&#10;  C 106.74 104.86 102.85 99.57 98.60 102.00&#10;  Q 98.17 102.25 97.79 101.93&#10;  L 94.59 99.15&#10;  A 0.13 0.07 -0.0 0 0 94.53 99.12&#10;  Q 93.90 98.84 93.69 99.19&#10;  Q 93.28 99.88 93.34 98.96&#10;  Q 93.58 95.50 91.97 96.41"/>
<path stroke="#2871da" d="&#10;  M 260.26 208.75&#10;  L 253.69 209.01&#10;  Q 253.01 209.04 253.54 209.28&#10;  Q 253.72 209.37 254.01 209.30&#10;  Q 254.67 209.15 255.29 209.33&#10;  Q 255.79 209.47 255.27 209.49&#10;  L 253.81 209.53&#10;  Q 253.81 209.53 253.81 209.58&#10;  Q 253.81 209.61 253.81 209.63&#10;  Q 253.82 209.73 253.90 209.73&#10;  Q 255.63 209.72 257.38 209.77&#10;  Q 257.74 209.78 257.40 209.90&#10;  L 257.05 210.01&#10;  Q 256.77 210.11 256.94 210.36&#10;  Q 257.70 211.43 257.48 212.73&#10;  Q 257.39 213.25 257.78 213.61&#10;  Q 260.13 215.79 261.77 218.51&#10;  C 265.13 224.11 263.44 231.20 269.18 235.38&#10;  Q 269.59 235.68 269.69 236.17&#10;  Q 271.37 244.48 273.15 252.78&#10;  Q 273.40 253.94 272.45 255.27&#10;  A 1.02 1.01 -37.1 0 0 272.32 256.17&#10;  C 273.60 259.84 275.95 260.85 275.25 265.45&#10;  Q 274.76 268.68 275.72 271.96&#10;  A 1.27 1.26 -35.5 0 1 275.53 273.07&#10;  Q 274.11 275.04 275.66 276.74&#10;  Q 276.04 277.15 276.13 277.69&#10;  C 276.61 280.37 278.39 283.39 277.75 285.96&#10;  A 1.49 1.46 -49.9 0 0 277.82 286.89&#10;  Q 279.09 289.99 279.46 293.28&#10;  C 279.86 296.86 281.04 298.90 282.60 301.87&#10;  Q 282.93 302.50 282.22 302.50&#10;  Q 280.18 302.52 279.89 303.26"/>
<path stroke="#267fd9" d="&#10;  M 279.89 303.26&#10;  Q 268.96 303.24 257.75 303.27&#10;  Q 256.12 303.27 255.54 304.23"/>
<path stroke="#8326d9" d="&#10;  M 135.22 196.15&#10;  Q 132.35 195.75 130.52 192.89&#10;  Q 130.43 192.75 130.26 192.75&#10;  Q 130.10 192.75 129.92 192.76&#10;  Q 129.60 192.78 129.59 192.46&#10;  Q 129.49 188.62 126.83 186.26&#10;  C 122.96 182.84 119.06 178.93 116.35 174.45&#10;  C 113.11 169.07 108.60 164.22 104.67 159.32&#10;  C 102.72 156.90 102.26 153.61 99.82 151.03&#10;  Q 96.78 147.82 93.65 144.70&#10;  C 92.05 143.10 89.92 143.00 88.22 141.01&#10;  C 85.53 137.86 78.72 132.16 74.30 133.74&#10;  Q 73.47 134.04 73.92 133.28&#10;  Q 75.00 131.46 73.94 130.49"/>
<path stroke="#2d59d7" d="&#10;  M 197.75 208.09&#10;  L 190.13 208.81&#10;  A 0.77 0.76 -38.3 0 0 189.95 210.30&#10;  Q 190.20 210.39 190.58 210.41&#10;  Q 191.11 210.44 191.25 210.95&#10;  Q 191.84 213.12 191.01 215.22&#10;  A 1.38 1.38 0.0 0 0 191.04 216.29&#10;  C 192.26 218.99 193.12 220.72 193.19 223.98&#10;  C 193.25 226.75 194.48 228.86 194.49 231.46&#10;  Q 194.50 233.57 194.50 235.71&#10;  Q 194.50 236.23 194.91 236.54&#10;  L 195.91 237.30&#10;  Q 196.30 237.60 196.29 238.10&#10;  Q 196.25 239.63 197.55 240.07&#10;  Q 198.11 240.26 198.14 240.85&#10;  Q 198.20 242.35 197.69 244.74&#10;  Q 197.40 246.11 198.78 246.40&#10;  Q 199.20 246.49 199.25 246.92&#10;  Q 201.37 266.53 200.91 271.93&#10;  Q 200.52 276.45 200.76 279.16&#10;  C 200.92 281.00 202.19 283.16 201.62 285.75&#10;  Q 200.92 288.97 203.42 289.14&#10;  Q 204.03 289.19 203.67 289.68&#10;  L 202.79 290.86&#10;  Q 202.46 291.32 202.49 291.88&#10;  L 202.84 298.58&#10;  A 1.59 1.57 -65.7 0 0 203.16 299.44&#10;  Q 204.03 300.56 202.61 301.67&#10;  Q 202.00 302.14 202.73 302.37&#10;  L 203.25 302.54&#10;  A 0.14 0.14 0.0 0 1 203.22 302.81&#10;  L 191.21 303.71"/>
<path stroke="#5339d6" d="&#10;  M 129.49 207.72&#10;  Q 121.88 222.75 113.56 237.99&#10;  C 103.59 256.28 94.54 274.98 84.34 293.16&#10;  C 82.85 295.83 80.34 298.96 78.72 302.25"/>
<path stroke="#248bda" d="&#10;  M 434.27 294.96&#10;  Q 408.91 273.83 385.28 250.98&#10;  Q 376.76 242.74 367.86 234.94&#10;  A 0.56 0.56 0.0 0 0 367.02 235.06&#10;  Q 363.26 241.00 358.55 246.31&#10;  Q 356.22 248.94 350.06 260.74"/>
<path stroke="#2a96da" d="&#10;  M 350.06 260.74&#10;  L 330.47 298.66"/>
<path stroke="#319fda" d="&#10;  M 330.47 298.66&#10;  L 327.87 303.37"/>
<path stroke="#248bda" d="&#10;  M 327.87 303.37&#10;  L 279.89 303.26"/>
<path stroke="#3bbbdd" d="&#10;  M 290.68 373.43&#10;  Q 258.46 434.31 226.19 495.19&#10;  Q 220.72 505.50 217.91 512.49"/>
<path stroke="#3b5cca" d="&#10;  M 123.25 473.69&#10;  L 123.25 472.96&#10;  Q 123.25 472.46 123.50 472.03&#10;  L 165.52 396.41"/>
<path stroke="#3bbbdd" d="&#10;  M 165.52 396.41&#10;  Q 168.46 397.17 168.76 393.90"/>
<path stroke="#28a5d9" d="&#10;  M 401.27 356.07&#10;  Q 398.28 354.37 397.01 350.36&#10;  Q 396.86 349.90 396.37 349.86&#10;  L 394.81 349.75&#10;  Q 394.23 349.71 394.35 349.14&#10;  Q 395.41 344.00 392.33 339.86&#10;  A 0.53 0.53 0.0 0 0 391.40 340.33&#10;  Q 391.58 340.94 391.72 341.57&#10;  A 0.19 0.19 0.0 0 1 391.36 341.67&#10;  L 390.63 339.66&#10;  Q 390.47 339.21 390.00 339.24&#10;  L 388.96 339.29&#10;  Q 388.67 339.31 388.55 339.05&#10;  Q 387.24 336.45 387.51 333.54&#10;  Q 387.56 333.04 387.29 332.61&#10;  C 384.59 328.27 384.41 324.67 382.17 321.28&#10;  Q 380.68 319.03 380.64 318.96&#10;  Q 372.67 304.22 364.16 289.78&#10;  C 363.35 288.40 362.54 287.33 361.92 285.87&#10;  Q 356.50 273.02 350.06 260.74"/>
<path stroke="#48d0dd" d="&#10;  M 335.73 476.96&#10;  Q 335.24 476.22 334.16 477.25&#10;  Q 333.75 477.64 333.27 477.34&#10;  Q 332.06 476.59 332.63 474.61&#10;  Q 332.77 474.14 333.08 473.75&#10;  C 336.36 469.63 334.83 467.40 334.12 462.81&#10;  Q 334.01 462.06 333.39 462.50&#10;  L 332.12 463.41&#10;  Q 331.73 463.69 331.68 463.22&#10;  C 331.45 460.95 331.78 459.42 330.64 457.35&#10;  Q 329.29 454.91 327.78 452.56&#10;  C 324.74 447.84 323.07 442.35 320.43 437.34&#10;  Q 318.65 433.99 319.56 430.04&#10;  Q 319.69 429.53 319.41 429.08&#10;  C 315.32 422.46 314.59 415.40 310.79 409.35&#10;  Q 310.53 408.93 310.51 408.43&#10;  Q 310.44 406.50 308.96 405.31&#10;  A 1.35 1.33 17.4 0 1 308.47 404.39&#10;  C 308.16 400.35 306.20 398.28 304.92 394.74&#10;  Q 304.26 392.89 303.07 391.27&#10;  A 1.91 1.88 -66.8 0 1 302.73 390.40&#10;  Q 301.94 383.81 297.66 378.99&#10;  C 295.59 376.65 294.97 373.94 292.51 371.72&#10;  Q 292.15 371.40 291.96 371.83&#10;  Q 291.52 372.83 290.68 373.43"/>
<path stroke="#2faed9" d="&#10;  M 290.68 373.43&#10;  L 327.87 303.37"/>
<path stroke="#35b9d9" d="&#10;  M 375.83 403.19&#10;  Q 372.88 398.28 373.50 392.68&#10;  A 0.33 0.32 12.2 0 0 373.26 392.32&#10;  Q 373.10 392.28 372.96 392.20&#10;  Q 372.75 392.07 372.65 391.74&#10;  C 371.71 388.72 371.98 385.72 370.89 382.96&#10;  C 369.27 378.86 367.32 375.21 365.69 370.87&#10;  Q 363.90 366.14 360.50 359.50&#10;  Q 355.79 350.28 343.89 320.29&#10;  Q 343.13 318.39 341.35 316.27&#10;  Q 337.53 311.71 336.30 305.73&#10;  A 2.46 2.39 21.3 0 0 335.89 304.83&#10;  C 335.05 303.70 335.29 302.42 334.71 301.40&#10;  Q 333.35 298.95 330.47 298.66"/>
<path stroke="#537ece" d="&#10;  M 168.26 393.47&#10;  Q 167.03 393.26 165.52 396.41"/>
</g>
<path fill="#2eb0d8" d="&#10;  M 428.57 97.43&#10;  C 395.15 87.84 362.16 74.89 329.84 59.44&#10;  L 341.91 38.19&#10;  Q 343.73 39.08 345.37 35.29&#10;  Q 352.15 19.53 360.89 4.71&#10;  Q 360.95 4.61 361.46 3.19&#10;  Q 361.98 1.76 364.25 1.75&#10;  C 386.29 1.68 408.40 2.10 430.42 1.39&#10;  C 442.22 1.00 452.99 1.09 459.26 11.48&#10;  C 463.16 17.94 468.51 25.68 463.30 32.94&#10;  Q 461.55 35.37 460.88 37.01&#10;  C 457.55 45.12 452.03 52.88 448.58 59.52&#10;  Q 438.77 78.42 428.57 97.43&#10;  Z"/>
<path fill="#a929e3" d="&#10;  M 183.29 1.80&#10;  Q 180.38 2.63 177.06 2.19&#10;  Q 176.83 2.16 177.00 2.31&#10;  L 177.22 2.50&#10;  Q 177.44 2.69 177.16 2.69&#10;  Q 176.71 2.70 176.25 2.77&#10;  A 0.11 0.11 0.0 0 0 176.27 2.99&#10;  Q 176.99 2.96 177.60 3.24&#10;  Q 177.91 3.38 177.58 3.48&#10;  Q 177.44 3.52 177.32 3.57&#10;  Q 177.08 3.66 177.09 3.92&#10;  Q 177.27 8.44 181.35 9.56&#10;  Q 181.97 9.73 182.36 10.25&#10;  L 185.88 14.96&#10;  A 0.36 0.35 78.0 0 1 185.52 15.52&#10;  L 184.07 15.19&#10;  Q 183.16 14.98 183.66 15.77&#10;  L 186.35 19.99&#10;  Q 186.63 20.43 186.67 20.95&#10;  C 186.82 23.02 188.62 24.05 189.48 25.28&#10;  Q 191.62 28.36 193.63 31.53&#10;  Q 193.93 32.00 194.49 32.00&#10;  L 195.56 32.00&#10;  Q 196.10 32.00 196.36 32.46&#10;  C 199.12 37.36 201.76 41.55 203.45 47.14&#10;  Q 205.08 52.52 207.18 57.73&#10;  Q 207.36 58.19 207.86 58.13&#10;  L 208.52 58.04&#10;  L 150.00 165.60&#10;  Q 142.20 158.81 138.82 147.72&#10;  C 137.74 144.18 134.82 141.18 133.08 137.68&#10;  Q 128.46 128.32 120.80 120.57&#10;  Q 120.46 120.23 120.35 119.76&#10;  C 119.59 116.64 116.30 115.12 113.54 114.20&#10;  Q 113.05 114.04 113.32 113.60&#10;  C 114.94 111.04 112.96 108.37 110.19 108.00&#10;  Q 109.69 107.94 109.34 107.58&#10;  C 106.74 104.86 102.85 99.57 98.60 102.00&#10;  Q 98.17 102.25 97.79 101.93&#10;  L 94.59 99.15&#10;  A 0.13 0.07 -0.0 0 0 94.53 99.12&#10;  Q 93.90 98.84 93.69 99.19&#10;  Q 93.28 99.88 93.34 98.96&#10;  Q 93.58 95.50 91.97 96.41&#10;  Q 114.11 54.75 136.47 13.11&#10;  C 140.40 5.78 145.63 2.13 153.96 1.89&#10;  Q 165.19 1.56 183.29 1.80&#10;  Z"/>
<path fill="#cb2ded" d="&#10;  M 183.29 1.80&#10;  L 224.46 1.76&#10;  Q 227.98 4.01 230.27 7.05&#10;  C 233.91 11.89 228.38 21.74 225.87 26.45&#10;  L 208.52 58.04&#10;  L 207.86 58.13&#10;  Q 207.36 58.19 207.18 57.73&#10;  Q 205.08 52.52 203.45 47.14&#10;  C 201.76 41.55 199.12 37.36 196.36 32.46&#10;  Q 196.10 32.00 195.56 32.00&#10;  L 194.49 32.00&#10;  Q 193.93 32.00 193.63 31.53&#10;  Q 191.62 28.36 189.48 25.28&#10;  C 188.62 24.05 186.82 23.02 186.67 20.95&#10;  Q 186.63 20.43 186.35 19.99&#10;  L 183.66 15.77&#10;  Q 183.16 14.98 184.07 15.19&#10;  L 185.52 15.52&#10;  A 0.36 0.35 78.0 0 0 185.88 14.96&#10;  L 182.36 10.25&#10;  Q 181.97 9.73 181.35 9.56&#10;  Q 177.27 8.44 177.09 3.92&#10;  Q 177.08 3.66 177.32 3.57&#10;  Q 177.44 3.52 177.58 3.48&#10;  Q 177.91 3.38 177.60 3.24&#10;  Q 176.99 2.96 176.27 2.99&#10;  A 0.11 0.11 0.0 0 1 176.25 2.77&#10;  Q 176.71 2.70 177.16 2.69&#10;  Q 177.44 2.69 177.22 2.50&#10;  L 177.00 2.31&#10;  Q 176.83 2.16 177.06 2.19&#10;  Q 180.38 2.63 183.29 1.80&#10;  Z"/>
<path fill="#4015b0" d="&#10;  M 224.46 1.76&#10;  Q 264.78 1.73 305.00 1.76&#10;  C 309.15 1.76 313.88 4.53 316.90 7.91&#10;  Q 326.54 18.68 333.60 31.27&#10;  C 335.41 34.51 339.10 36.10 341.91 38.19&#10;  L 329.84 59.44&#10;  C 325.12 67.51 320.06 75.39 315.81 83.95&#10;  C 312.11 91.41 306.52 99.92 303.54 105.66&#10;  Q 298.77 114.83 293.85 124.42&#10;  Q 285.48 124.43 276.55 124.30&#10;  C 261.69 124.10 254.16 126.77 246.89 139.42&#10;  Q 241.71 148.42 236.80 157.65&#10;  Q 236.48 157.25 236.64 156.17&#10;  Q 236.65 156.11 237.18 154.84&#10;  Q 237.41 154.29 237.23 153.73&#10;  C 235.41 147.93 239.23 142.62 235.37 138.33&#10;  A 0.80 0.80 0.0 0 1 236.02 137.00&#10;  C 240.62 137.32 240.06 132.68 237.95 130.51&#10;  A 0.88 0.87 -25.3 0 0 237.22 130.25&#10;  Q 236.25 130.36 235.57 129.70&#10;  Q 235.20 129.33 235.41 128.85&#10;  C 236.94 125.36 236.43 122.42 237.35 119.47&#10;  A 1.01 0.99 33.6 0 0 237.15 118.53&#10;  Q 235.38 116.48 236.54 114.05&#10;  A 0.97 0.94 -50.4 0 0 236.46 113.09&#10;  Q 235.09 111.14 236.21 109.15&#10;  A 0.65 0.64 -40.1 0 0 236.26 108.61&#10;  L 235.12 105.37&#10;  A 0.69 0.69 0.0 0 1 235.18 104.76&#10;  Q 236.63 102.40 235.58 99.97&#10;  Q 235.40 99.57 235.48 99.13&#10;  C 236.22 94.75 233.65 91.44 235.07 87.56&#10;  A 1.07 1.06 -53.9 0 0 234.92 86.55&#10;  Q 233.73 84.97 234.55 83.09&#10;  A 0.96 0.95 -54.4 0 0 234.39 82.08&#10;  Q 232.74 80.15 233.49 77.78&#10;  A 1.88 1.87 -42.7 0 0 233.53 76.81&#10;  Q 232.72 73.17 233.93 69.65&#10;  A 0.98 0.97 -55.5 0 0 233.76 68.71&#10;  Q 232.74 67.46 233.28 65.97&#10;  Q 233.44 65.53 233.35 65.08&#10;  Q 232.93 62.96 233.71 61.02&#10;  A 1.17 1.17 0.0 0 0 233.60 59.92&#10;  Q 230.75 55.68 233.47 51.22&#10;  A 1.25 1.24 51.9 0 0 233.59 50.18&#10;  Q 232.82 47.78 233.96 45.60&#10;  A 0.91 0.91 0.0 0 0 233.94 44.71&#10;  Q 230.68 39.15 232.66 33.00&#10;  Q 232.83 32.49 232.64 31.99&#10;  L 230.16 25.46&#10;  A 0.96 0.95 -39.8 0 0 228.45 25.31&#10;  L 226.57 28.40&#10;  A 0.18 0.16 20.3 0 1 226.38 28.48&#10;  L 225.94 28.36&#10;  Q 225.65 28.29 225.90 28.13&#10;  Q 226.64 27.67 225.87 26.45&#10;  C 228.38 21.74 233.91 11.89 230.27 7.05&#10;  Q 227.98 4.01 224.46 1.76&#10;  Z"/>
<path fill="#531eba" d="&#10;  M 236.80 157.65&#10;  L 209.59 208.57&#10;  L 197.75 208.09&#10;  L 129.49 207.72&#10;  L 135.22 196.15&#10;  L 150.00 165.60&#10;  L 208.52 58.04&#10;  L 225.87 26.45&#10;  Q 226.64 27.67 225.90 28.13&#10;  Q 225.65 28.29 225.94 28.36&#10;  L 226.38 28.48&#10;  A 0.18 0.16 20.3 0 0 226.57 28.40&#10;  L 228.45 25.31&#10;  A 0.96 0.95 -39.8 0 1 230.16 25.46&#10;  L 232.64 31.99&#10;  Q 232.83 32.49 232.66 33.00&#10;  Q 230.68 39.15 233.94 44.71&#10;  A 0.91 0.91 0.0 0 1 233.96 45.60&#10;  Q 232.82 47.78 233.59 50.18&#10;  A 1.25 1.24 51.9 0 1 233.47 51.22&#10;  Q 230.75 55.68 233.60 59.92&#10;  A 1.17 1.17 0.0 0 1 233.71 61.02&#10;  Q 232.93 62.96 233.35 65.08&#10;  Q 233.44 65.53 233.28 65.97&#10;  Q 232.74 67.46 233.76 68.71&#10;  A 0.98 0.97 -55.5 0 1 233.93 69.65&#10;  Q 232.72 73.17 233.53 76.81&#10;  A 1.88 1.87 -42.7 0 1 233.49 77.78&#10;  Q 232.74 80.15 234.39 82.08&#10;  A 0.96 0.95 -54.4 0 1 234.55 83.09&#10;  Q 233.73 84.97 234.92 86.55&#10;  A 1.07 1.06 -53.9 0 1 235.07 87.56&#10;  C 233.65 91.44 236.22 94.75 235.48 99.13&#10;  Q 235.40 99.57 235.58 99.97&#10;  Q 236.63 102.40 235.18 104.76&#10;  A 0.69 0.69 0.0 0 0 235.12 105.37&#10;  L 236.26 108.61&#10;  A 0.65 0.64 -40.1 0 1 236.21 109.15&#10;  Q 235.09 111.14 236.46 113.09&#10;  A 0.97 0.94 -50.4 0 1 236.54 114.05&#10;  Q 235.38 116.48 237.15 118.53&#10;  A 1.01 0.99 33.6 0 1 237.35 119.47&#10;  C 236.43 122.42 236.94 125.36 235.41 128.85&#10;  Q 235.20 129.33 235.57 129.70&#10;  Q 236.25 130.36 237.22 130.25&#10;  A 0.88 0.87 -25.3 0 1 237.95 130.51&#10;  C 240.06 132.68 240.62 137.32 236.02 137.00&#10;  A 0.80 0.80 0.0 0 0 235.37 138.33&#10;  C 239.23 142.62 235.41 147.93 237.23 153.73&#10;  Q 237.41 154.29 237.18 154.84&#10;  Q 236.65 156.11 236.64 156.17&#10;  Q 236.48 157.25 236.80 157.65&#10;  Z"/>
<path fill="#238bd7" d="&#10;  M 329.84 59.44&#10;  C 362.16 74.89 395.15 87.84 428.57 97.43&#10;  L 414.53 123.80&#10;  A 1.24 1.24 0.0 0 1 413.44 124.45&#10;  L 293.85 124.42&#10;  Q 298.77 114.83 303.54 105.66&#10;  C 306.52 99.92 312.11 91.41 315.81 83.95&#10;  C 320.06 75.39 325.12 67.51 329.84 59.44&#10;  Z"/>
<path fill="#8f26dc" d="&#10;  M 150.00 165.60&#10;  L 135.22 196.15&#10;  Q 132.35 195.75 130.52 192.89&#10;  Q 130.43 192.75 130.26 192.75&#10;  Q 130.10 192.75 129.92 192.76&#10;  Q 129.60 192.78 129.59 192.46&#10;  Q 129.49 188.62 126.83 186.26&#10;  C 122.96 182.84 119.06 178.93 116.35 174.45&#10;  C 113.11 169.07 108.60 164.22 104.67 159.32&#10;  C 102.72 156.90 102.26 153.61 99.82 151.03&#10;  Q 96.78 147.82 93.65 144.70&#10;  C 92.05 143.10 89.92 143.00 88.22 141.01&#10;  C 85.53 137.86 78.72 132.16 74.30 133.74&#10;  Q 73.47 134.04 73.92 133.28&#10;  Q 75.00 131.46 73.94 130.49&#10;  L 91.97 96.41&#10;  Q 93.58 95.50 93.34 98.96&#10;  Q 93.28 99.88 93.69 99.19&#10;  Q 93.90 98.84 94.53 99.12&#10;  A 0.13 0.07 0.0 0 1 94.59 99.15&#10;  L 97.79 101.93&#10;  Q 98.17 102.25 98.60 102.00&#10;  C 102.85 99.57 106.74 104.86 109.34 107.58&#10;  Q 109.69 107.94 110.19 108.00&#10;  C 112.96 108.37 114.94 111.04 113.32 113.60&#10;  Q 113.05 114.04 113.54 114.20&#10;  C 116.30 115.12 119.59 116.64 120.35 119.76&#10;  Q 120.46 120.23 120.80 120.57&#10;  Q 128.46 128.32 133.08 137.68&#10;  C 134.82 141.18 137.74 144.18 138.82 147.72&#10;  Q 142.20 158.81 150.00 165.60&#10;  Z"/>
<path fill="#7625d6" d="&#10;  M 73.94 130.49&#10;  Q 75.00 131.46 73.92 133.28&#10;  Q 73.47 134.04 74.30 133.74&#10;  C 78.72 132.16 85.53 137.86 88.22 141.01&#10;  C 89.92 143.00 92.05 143.10 93.65 144.70&#10;  Q 96.78 147.82 99.82 151.03&#10;  C 102.26 153.61 102.72 156.90 104.67 159.32&#10;  C 108.60 164.22 113.11 169.07 116.35 174.45&#10;  C 119.06 178.93 122.96 182.84 126.83 186.26&#10;  Q 129.49 188.62 129.59 192.46&#10;  Q 129.60 192.78 129.92 192.76&#10;  Q 130.10 192.75 130.26 192.75&#10;  Q 130.43 192.75 130.52 192.89&#10;  Q 132.35 195.75 135.22 196.15&#10;  L 129.49 207.72&#10;  Q 121.88 222.75 113.56 237.99&#10;  C 103.59 256.28 94.54 274.98 84.34 293.16&#10;  C 82.85 295.83 80.34 298.96 78.72 302.25&#10;  Q 70.66 298.55 63.72 293.01&#10;  Q 39.74 273.88 14.26 256.75&#10;  C 8.22 252.69 15.59 240.12 18.31 235.00&#10;  Q 46.01 182.69 73.94 130.49&#10;  Z"/>
<path fill="#2f4dd5" d="&#10;  M 129.49 207.72&#10;  L 197.75 208.09&#10;  L 190.13 208.81&#10;  A 0.77 0.76 -38.3 0 0 189.95 210.30&#10;  Q 190.20 210.39 190.58 210.41&#10;  Q 191.11 210.44 191.25 210.95&#10;  Q 191.84 213.12 191.01 215.22&#10;  A 1.38 1.38 0.0 0 0 191.04 216.29&#10;  C 192.26 218.99 193.12 220.72 193.19 223.98&#10;  C 193.25 226.75 194.48 228.86 194.49 231.46&#10;  Q 194.50 233.57 194.50 235.71&#10;  Q 194.50 236.23 194.91 236.54&#10;  L 195.91 237.30&#10;  Q 196.30 237.60 196.29 238.10&#10;  Q 196.25 239.63 197.55 240.07&#10;  Q 198.11 240.26 198.14 240.85&#10;  Q 198.20 242.35 197.69 244.74&#10;  Q 197.40 246.11 198.78 246.40&#10;  Q 199.20 246.49 199.25 246.92&#10;  Q 201.37 266.53 200.91 271.93&#10;  Q 200.52 276.45 200.76 279.16&#10;  C 200.92 281.00 202.19 283.16 201.62 285.75&#10;  Q 200.92 288.97 203.42 289.14&#10;  Q 204.03 289.19 203.67 289.68&#10;  L 202.79 290.86&#10;  Q 202.46 291.32 202.49 291.88&#10;  L 202.84 298.58&#10;  A 1.59 1.57 -65.7 0 0 203.16 299.44&#10;  Q 204.03 300.56 202.61 301.67&#10;  Q 202.00 302.14 202.73 302.37&#10;  L 203.25 302.54&#10;  A 0.14 0.14 0.0 0 1 203.22 302.81&#10;  L 191.21 303.71&#10;  Q 140.53 303.78 89.75 303.78&#10;  Q 83.94 303.78 78.72 302.25&#10;  C 80.34 298.96 82.85 295.83 84.34 293.16&#10;  C 94.54 274.98 103.59 256.28 113.56 237.99&#10;  Q 121.88 222.75 129.49 207.72&#10;  Z"/>
<path fill="#2a65d9" d="&#10;  M 197.75 208.09&#10;  L 209.59 208.57&#10;  L 260.26 208.75&#10;  L 253.69 209.01&#10;  Q 253.01 209.04 253.54 209.28&#10;  Q 253.72 209.37 254.01 209.30&#10;  Q 254.67 209.15 255.29 209.33&#10;  Q 255.79 209.47 255.27 209.49&#10;  L 253.81 209.53&#10;  Q 253.81 209.53 253.81 209.58&#10;  Q 253.81 209.61 253.81 209.63&#10;  Q 253.82 209.73 253.90 209.73&#10;  Q 255.63 209.72 257.38 209.77&#10;  Q 257.74 209.78 257.40 209.90&#10;  L 257.05 210.01&#10;  Q 256.77 210.11 256.94 210.36&#10;  Q 257.70 211.43 257.48 212.73&#10;  Q 257.39 213.25 257.78 213.61&#10;  Q 260.13 215.79 261.77 218.51&#10;  C 265.13 224.11 263.44 231.20 269.18 235.38&#10;  Q 269.59 235.68 269.69 236.17&#10;  Q 271.37 244.48 273.15 252.78&#10;  Q 273.40 253.94 272.45 255.27&#10;  A 1.02 1.01 -37.1 0 0 272.32 256.17&#10;  C 273.60 259.84 275.95 260.85 275.25 265.45&#10;  Q 274.76 268.68 275.72 271.96&#10;  A 1.27 1.26 -35.5 0 1 275.53 273.07&#10;  Q 274.11 275.04 275.66 276.74&#10;  Q 276.04 277.15 276.13 277.69&#10;  C 276.61 280.37 278.39 283.39 277.75 285.96&#10;  A 1.49 1.46 -49.9 0 0 277.82 286.89&#10;  Q 279.09 289.99 279.46 293.28&#10;  C 279.86 296.86 281.04 298.90 282.60 301.87&#10;  Q 282.93 302.50 282.22 302.50&#10;  Q 280.18 302.52 279.89 303.26&#10;  Q 268.96 303.24 257.75 303.27&#10;  Q 256.12 303.27 255.54 304.23&#10;  Q 255.31 303.75 255.00 303.75&#10;  Q 223.15 303.78 191.21 303.71&#10;  L 203.22 302.81&#10;  A 0.14 0.14 0.0 0 0 203.25 302.54&#10;  L 202.73 302.37&#10;  Q 202.00 302.14 202.61 301.67&#10;  Q 204.03 300.56 203.16 299.44&#10;  A 1.59 1.57 -65.7 0 1 202.84 298.58&#10;  L 202.49 291.88&#10;  Q 202.46 291.32 202.79 290.86&#10;  L 203.67 289.68&#10;  Q 204.03 289.19 203.42 289.14&#10;  Q 200.92 288.97 201.62 285.75&#10;  C 202.19 283.16 200.92 281.00 200.76 279.16&#10;  Q 200.52 276.45 200.91 271.93&#10;  Q 201.37 266.53 199.25 246.92&#10;  Q 199.20 246.49 198.78 246.40&#10;  Q 197.40 246.11 197.69 244.74&#10;  Q 198.20 242.35 198.14 240.85&#10;  Q 198.11 240.26 197.55 240.07&#10;  Q 196.25 239.63 196.29 238.10&#10;  Q 196.30 237.60 195.91 237.30&#10;  L 194.91 236.54&#10;  Q 194.50 236.23 194.50 235.71&#10;  Q 194.50 233.57 194.49 231.46&#10;  C 194.48 228.86 193.25 226.75 193.19 223.98&#10;  C 193.12 220.72 192.26 218.99 191.04 216.29&#10;  A 1.38 1.38 0.0 0 1 191.01 215.22&#10;  Q 191.84 213.12 191.25 210.95&#10;  Q 191.11 210.44 190.58 210.41&#10;  Q 190.20 210.39 189.95 210.30&#10;  A 0.77 0.76 -38.3 0 1 190.13 208.81&#10;  L 197.75 208.09&#10;  Z"/>
<path fill="#267cdb" d="&#10;  M 260.26 208.75&#10;  Q 326.74 208.74 393.25 208.76&#10;  C 396.00 208.76 400.34 211.08 402.79 213.21&#10;  Q 424.32 231.93 445.83 250.68&#10;  Q 448.65 253.15 455.54 255.42&#10;  Q 456.14 255.62 455.84 256.17&#10;  L 434.27 294.96&#10;  Q 408.91 273.83 385.28 250.98&#10;  Q 376.76 242.74 367.86 234.94&#10;  A 0.56 0.56 0.0 0 0 367.02 235.06&#10;  Q 363.26 241.00 358.55 246.31&#10;  Q 356.22 248.94 350.06 260.74&#10;  L 330.47 298.66&#10;  L 327.87 303.37&#10;  L 279.89 303.26&#10;  Q 280.18 302.52 282.22 302.50&#10;  Q 282.93 302.50 282.60 301.87&#10;  C 281.04 298.90 279.86 296.86 279.46 293.28&#10;  Q 279.09 289.99 277.82 286.89&#10;  A 1.49 1.46 -49.9 0 1 277.75 285.96&#10;  C 278.39 283.39 276.61 280.37 276.13 277.69&#10;  Q 276.04 277.15 275.66 276.74&#10;  Q 274.11 275.04 275.53 273.07&#10;  A 1.27 1.26 -35.5 0 0 275.72 271.96&#10;  Q 274.76 268.68 275.25 265.45&#10;  C 275.95 260.85 273.60 259.84 272.32 256.17&#10;  A 1.02 1.01 -37.1 0 1 272.45 255.27&#10;  Q 273.40 253.94 273.15 252.78&#10;  Q 271.37 244.48 269.69 236.17&#10;  Q 269.59 235.68 269.18 235.38&#10;  C 263.44 231.20 265.13 224.11 261.77 218.51&#10;  Q 260.13 215.79 257.78 213.61&#10;  Q 257.39 213.25 257.48 212.73&#10;  Q 257.70 211.43 256.94 210.36&#10;  Q 256.77 210.11 257.05 210.01&#10;  L 257.40 209.90&#10;  Q 257.74 209.78 257.38 209.77&#10;  Q 255.63 209.72 253.90 209.73&#10;  Q 253.82 209.73 253.81 209.63&#10;  Q 253.81 209.61 253.81 209.58&#10;  Q 253.81 209.53 253.81 209.53&#10;  L 255.27 209.49&#10;  Q 255.79 209.47 255.29 209.33&#10;  Q 254.67 209.15 254.01 209.30&#10;  Q 253.72 209.37 253.54 209.28&#10;  Q 253.01 209.04 253.69 209.01&#10;  L 260.26 208.75&#10;  Z"/>
<path fill="#2299d9" d="&#10;  M 434.27 294.96&#10;  L 401.27 356.07&#10;  Q 398.28 354.37 397.01 350.36&#10;  Q 396.86 349.90 396.37 349.86&#10;  L 394.81 349.75&#10;  Q 394.23 349.71 394.35 349.14&#10;  Q 395.41 344.00 392.33 339.86&#10;  A 0.53 0.53 0.0 0 0 391.40 340.33&#10;  Q 391.58 340.94 391.72 341.57&#10;  A 0.19 0.19 0.0 0 1 391.36 341.67&#10;  L 390.63 339.66&#10;  Q 390.47 339.21 390.00 339.24&#10;  L 388.96 339.29&#10;  Q 388.67 339.31 388.55 339.05&#10;  Q 387.24 336.45 387.51 333.54&#10;  Q 387.56 333.04 387.29 332.61&#10;  C 384.59 328.27 384.41 324.67 382.17 321.28&#10;  Q 380.68 319.03 380.64 318.96&#10;  Q 372.67 304.22 364.16 289.78&#10;  C 363.35 288.40 362.54 287.33 361.92 285.87&#10;  Q 356.50 273.02 350.06 260.74&#10;  Q 356.22 248.94 358.55 246.31&#10;  Q 363.26 241.00 367.02 235.06&#10;  A 0.56 0.56 0.0 0 1 367.86 234.94&#10;  Q 376.76 242.74 385.28 250.98&#10;  Q 408.91 273.83 434.27 294.96&#10;  Z"/>
<path fill="#2eb0d8" d="&#10;  M 350.06 260.74&#10;  Q 356.50 273.02 361.92 285.87&#10;  C 362.54 287.33 363.35 288.40 364.16 289.78&#10;  Q 372.67 304.22 380.64 318.96&#10;  Q 380.68 319.03 382.17 321.28&#10;  C 384.41 324.67 384.59 328.27 387.29 332.61&#10;  Q 387.56 333.04 387.51 333.54&#10;  Q 387.24 336.45 388.55 339.05&#10;  Q 388.67 339.31 388.96 339.29&#10;  L 390.00 339.24&#10;  Q 390.47 339.21 390.63 339.66&#10;  L 391.36 341.67&#10;  A 0.19 0.19 0.0 0 0 391.72 341.57&#10;  Q 391.58 340.94 391.40 340.33&#10;  A 0.53 0.53 0.0 0 1 392.33 339.86&#10;  Q 395.41 344.00 394.35 349.14&#10;  Q 394.23 349.71 394.81 349.75&#10;  L 396.37 349.86&#10;  Q 396.86 349.90 397.01 350.36&#10;  Q 398.28 354.37 401.27 356.07&#10;  L 375.83 403.19&#10;  Q 372.88 398.28 373.50 392.68&#10;  A 0.33 0.32 12.2 0 0 373.26 392.32&#10;  Q 373.10 392.28 372.96 392.20&#10;  Q 372.75 392.07 372.65 391.74&#10;  C 371.71 388.72 371.98 385.72 370.89 382.96&#10;  C 369.27 378.86 367.32 375.21 365.69 370.87&#10;  Q 363.90 366.14 360.50 359.50&#10;  Q 355.79 350.28 343.89 320.29&#10;  Q 343.13 318.39 341.35 316.27&#10;  Q 337.53 311.71 336.30 305.73&#10;  A 2.46 2.39 21.3 0 0 335.89 304.83&#10;  C 335.05 303.70 335.29 302.42 334.71 301.40&#10;  Q 333.35 298.95 330.47 298.66&#10;  L 350.06 260.74&#10;  Z"/>
<path fill="#3cc2d9" d="&#10;  M 330.47 298.66&#10;  Q 333.35 298.95 334.71 301.40&#10;  C 335.29 302.42 335.05 303.70 335.89 304.83&#10;  A 2.46 2.39 21.3 0 1 336.30 305.73&#10;  Q 337.53 311.71 341.35 316.27&#10;  Q 343.13 318.39 343.89 320.29&#10;  Q 355.79 350.28 360.50 359.50&#10;  Q 363.90 366.14 365.69 370.87&#10;  C 367.32 375.21 369.27 378.86 370.89 382.96&#10;  C 371.98 385.72 371.71 388.72 372.65 391.74&#10;  Q 372.75 392.07 372.96 392.20&#10;  Q 373.10 392.28 373.26 392.32&#10;  A 0.33 0.32 12.2 0 1 373.50 392.68&#10;  Q 372.88 398.28 375.83 403.19&#10;  L 335.73 476.96&#10;  Q 335.24 476.22 334.16 477.25&#10;  Q 333.75 477.64 333.27 477.34&#10;  Q 332.06 476.59 332.63 474.61&#10;  Q 332.77 474.14 333.08 473.75&#10;  C 336.36 469.63 334.83 467.40 334.12 462.81&#10;  Q 334.01 462.06 333.39 462.50&#10;  L 332.12 463.41&#10;  Q 331.73 463.69 331.68 463.22&#10;  C 331.45 460.95 331.78 459.42 330.64 457.35&#10;  Q 329.29 454.91 327.78 452.56&#10;  C 324.74 447.84 323.07 442.35 320.43 437.34&#10;  Q 318.65 433.99 319.56 430.04&#10;  Q 319.69 429.53 319.41 429.08&#10;  C 315.32 422.46 314.59 415.40 310.79 409.35&#10;  Q 310.53 408.93 310.51 408.43&#10;  Q 310.44 406.50 308.96 405.31&#10;  A 1.35 1.33 17.4 0 1 308.47 404.39&#10;  C 308.16 400.35 306.20 398.28 304.92 394.74&#10;  Q 304.26 392.89 303.07 391.27&#10;  A 1.91 1.88 -66.8 0 1 302.73 390.40&#10;  Q 301.94 383.81 297.66 378.99&#10;  C 295.59 376.65 294.97 373.94 292.51 371.72&#10;  Q 292.15 371.40 291.96 371.83&#10;  Q 291.52 372.83 290.68 373.43&#10;  L 327.87 303.37&#10;  L 330.47 298.66&#10;  Z"/>
<path fill="#2299d9" d="&#10;  M 279.89 303.26&#10;  L 327.87 303.37&#10;  L 290.68 373.43&#10;  Q 258.46 434.31 226.19 495.19&#10;  Q 220.72 505.50 217.91 512.49&#10;  Q 185.57 512.51 153.00 512.49&#10;  Q 152.64 512.49 151.85 512.18&#10;  C 147.98 510.65 141.13 500.65 138.90 498.20&#10;  C 135.44 494.37 131.79 491.12 129.67 486.27&#10;  Q 127.13 480.47 124.44 474.79&#10;  Q 124.02 473.89 123.25 473.69&#10;  L 123.25 472.96&#10;  Q 123.25 472.46 123.50 472.03&#10;  L 165.52 396.41&#10;  Q 168.46 397.17 168.76 393.90&#10;  C 173.77 393.08 177.75 392.49 183.54 392.23&#10;  C 197.69 391.59 213.17 384.51 219.81 371.65&#10;  Q 236.43 339.45 253.31 307.39&#10;  C 253.86 306.33 254.82 305.23 255.54 304.23&#10;  Q 256.12 303.27 257.75 303.27&#10;  Q 268.96 303.24 279.89 303.26&#10;  Z"/>
<path fill="#53dde1" d="&#10;  M 335.73 476.96&#10;  Q 323.55 500.28 320.02 506.02&#10;  C 316.76 511.34 312.12 512.50 305.71 512.50&#10;  Q 261.90 512.50 217.91 512.49&#10;  Q 220.72 505.50 226.19 495.19&#10;  Q 258.46 434.31 290.68 373.43&#10;  Q 291.52 372.83 291.96 371.83&#10;  Q 292.15 371.40 292.51 371.72&#10;  C 294.97 373.94 295.59 376.65 297.66 378.99&#10;  Q 301.94 383.81 302.73 390.40&#10;  A 1.91 1.88 -66.8 0 0 303.07 391.27&#10;  Q 304.26 392.89 304.92 394.74&#10;  C 306.20 398.28 308.16 400.35 308.47 404.39&#10;  A 1.35 1.33 17.4 0 0 308.96 405.31&#10;  Q 310.44 406.50 310.51 408.43&#10;  Q 310.53 408.93 310.79 409.35&#10;  C 314.59 415.40 315.32 422.46 319.41 429.08&#10;  Q 319.69 429.53 319.56 430.04&#10;  Q 318.65 433.99 320.43 437.34&#10;  C 323.07 442.35 324.74 447.84 327.78 452.56&#10;  Q 329.29 454.91 330.64 457.35&#10;  C 331.78 459.42 331.45 460.95 331.68 463.22&#10;  Q 331.73 463.69 332.12 463.41&#10;  L 333.39 462.50&#10;  Q 334.01 462.06 334.12 462.81&#10;  C 334.83 467.40 336.36 469.63 333.08 473.75&#10;  Q 332.77 474.14 332.63 474.61&#10;  Q 332.06 476.59 333.27 477.34&#10;  Q 333.75 477.64 334.16 477.25&#10;  Q 335.24 476.22 335.73 476.96&#10;  Z"/>
<path fill="#531eba" d="&#10;  M 168.26 393.47&#10;  Q 167.03 393.26 165.52 396.41&#10;  L 123.50 472.03&#10;  Q 123.25 472.46 123.25 472.96&#10;  L 123.25 473.69&#10;  C 122.91 473.99 122.43 474.34 122.21 474.73&#10;  Q 117.84 482.74 113.75 490.91&#10;  C 110.48 497.44 106.16 503.82 102.55 510.50&#10;  Q 101.52 512.41 99.36 512.42&#10;  Q 67.22 512.57 34.12 512.50&#10;  Q 27.89 512.49 24.99 511.47&#10;  C 17.63 508.91 10.64 500.91 6.51 495.28&#10;  C -0.49 485.73 0.84 477.44 6.31 467.39&#10;  C 17.06 447.68 27.20 427.65 38.23 408.11&#10;  Q 43.30 399.12 48.09 390.07&#10;  A 2.88 2.88 0.0 0 1 50.61 388.55&#10;  L 168.89 388.38&#10;  Q 169.54 388.38 169.38 389.01&#10;  L 168.26 393.47&#10;  Z"/>
<path fill="#53dde1" d="&#10;  M 168.26 393.47&#10;  Q 168.89 393.43 168.76 393.90&#10;  Q 168.46 397.17 165.52 396.41&#10;  Q 167.03 393.26 168.26 393.47&#10;  Z"/>
</svg>